<svg xmlns="http://www.w3.org/2000/svg" viewBox="0 0 200 200" fill="none">
  <rect width="200" height="200" rx="32" fill="#0a0a0a"/>
  <g stroke="#facc15" stroke-width="3" stroke-linecap="round" stroke-linejoin="round" fill="#0a0a0a">
    <path d="M100 38 L168 62 L100 86 L32 62 Z"/>
    <path d="M100 50 L154 70 L100 90 L46 70 Z"/>
    <path d="M70 80 Q70 96 100 100 Q130 96 130 80"/>
    <path d="M70 80 L70 86 Q70 102 100 106 Q130 102 130 86 L130 80"/>
    <path d="M168 62 L168 95" fill="none"/>
    <path d="M165 102 l3 6 l3 -6" fill="none"/>
    <path d="M100 96 C 78 96 60 108 56 124 C 44 126 38 138 42 150 C 36 158 40 170 50 174 C 52 184 64 188 74 184 C 80 192 96 192 100 184 C 104 192 120 192 126 184 C 136 188 148 184 150 174 C 160 170 164 158 158 150 C 162 138 156 126 144 124 C 140 108 122 96 100 96 Z"/>
    <path d="M100 100 L100 184" fill="none"/>
    <path d="M88 110 q-10 6 -8 18 q2 8 -4 12" fill="none"/>
    <path d="M76 130 q-12 2 -12 14 q0 8 6 12" fill="none"/>
    <path d="M112 110 q10 6 8 18 q-2 8 4 12" fill="none"/>
    <path d="M124 130 q12 2 12 14 q0 8 -6 12" fill="none"/>
    <path d="M132 168 q10 2 14 10 q-6 4 -10 10" fill="none"/>
  </g>
</svg>
